<svg version="1.1" xmlns="http://www.w3.org/2000/svg" xmlns:xlink="http://www.w3.org/1999/xlink" xmlns:a="http://ns.adobe.com/AdobeSVGViewerExtensions/3.0/" x="0px" y="0px" width="130px" height="80px" viewBox="0 0 173.1 138.7" style="enable-background:new 0 0 173.1 138.7" xml:space="preserve">
    <style type="text/css">
        .st0{fill:#1D1D1B;}
    </style>
    <defs/>
    <g>
        <g>
            <path class="st0" d="M173.1,25.1L36.6,0.1L36.2,0L1.2,12.8V77h138.1l0.1,0.1l0.1-0.1h33.7V25.1z M145.5,68l-1.4-7.2l4.9,4
										L145.5,68z M150.9,66.4l9.7,8h-13.8l-0.7-3.5L150.9,66.4z M134.3,49.5l-3.9-3.2l5.8-12.1l2.6,12.8L134.3,49.5z M139.2,49.6
										l0.9,4.7l-3.8-3.1L139.2,49.6z M37.6,16.3l10.5,12.4l-10.5,3.2V16.3z M37.6,41.2l7,10.3l-7,11.3V41.2z M37.6,36.7v-2.1l12.2-3.7
										l4.3,5.2L46,49.1L37.6,36.7z M52.5,30l6.6-2l-3.5,5.7L52.5,30z M55.9,38l10.3,12.3L54,60.9l-6.4-9.5L55.9,38z M57.3,35.8l5.5-8.9
										l9.6-2.9L80.5,38L68.2,48.7L57.3,35.8z M64.8,23.6l3.8-6.1l2.4,4.2L64.8,23.6z M74.9,23.2l17-5.2l6.1,5L82.5,36.3L74.9,23.2z
										 M81.8,40.3l8.9,15.3l-8.5,9.8L69.8,50.6L81.8,40.3z M83.8,38.6l16.2-14l10.3,8.5L92.4,53.6L83.8,38.6z M112.2,34.6l14.9,12.3
										l-4.3,9.1L101,68.4l-7.2-12.5L112.2,34.6z M129.2,48.6l2.7,2.2l-5.2,2.9L129.2,48.6z M137.9,30.3l4-8.4l6,1.1l7.9,14.2L141,45.6
										L137.9,30.3z M137.1,26.1l-1.1-5.2l3.3,0.6L137.1,26.1z M135.2,30l-6.9,14.6l-14.4-11.8L125.9,19l7.4,1.4L135.2,30z M111.9,31.1
										l-10-8.2l7.9-6.8l13.1,2.4L111.9,31.1z M99.9,21.2L94.9,17l7.5-2.3l0-0.1l4.3,0.8L99.9,21.2z M92.5,15.1L89,12.3l8,1.5L92.5,15.1z
										 M89.6,16l-16,4.9L70.2,15l3.4-5.5l10.5,1.9L84,11.4L89.6,16z M68.7,12.5l-2.5-4.4l4.7,0.9L68.7,12.5z M67.2,14.9l-6.1,9.8
										l-10.4,3.2L37.6,12.3V2.8l25.3,4.6L67.2,14.9z M37.6,67.6l8.5-13.8l5.9,8.8L38.5,74.3l0.1,0.1h-1V67.6z M53.5,64.7l6.6,9.7H42.2
										L53.5,64.7z M55.4,63l12.4-10.7l12.6,15l-6.2,7.1l0,0H63.1L55.4,63z M82.1,69.3l4.3,5.1h-8.8L82.1,69.3z M83.8,67.3l8.2-9.4
										l6.8,11.7l-8.4,4.8h-0.6L83.8,67.3z M100,71.9l1.5,2.6h-6L100,71.9z M102.3,70.6L120.9,60L114,74.4h-9.6L102.3,70.6z M124.8,57.8
										l9.2-5.2l6.9,5.7l2.4,11.8l-4.8,4.4h-21.6L124.8,57.8z M143.2,56.9l-1.7-8.6l15.5-8.8l6.6,11.9l-12.8,11.8L143.2,56.9z
										 M159.2,38.2l11.3-6.4v13.2l-5,4.6L159.2,38.2z M170.5,48.4v10.2l-3.7-6.7L170.5,48.4z M170.5,28.8L158,35.9l-6.8-12.3l19.4,3.6
										V28.8z M3.7,14.6L35.1,3.1v71.3H3.7V14.6z M143.9,72.9l0.3,1.5h-2L143.9,72.9z M164.3,74.4l0.1-0.2l-11.6-9.6l12.1-11.1l5.7,10.2
										v10.6H164.3z"/>
        </g>
        <g>
            <g>
                <g>
                    <path class="st0" d="M4.1,100.7c0,0.1,0.1,0.1,0.1,0l2-6.8c0-0.2,0.1-0.2,0.3-0.2H8c0.2,0,0.3,0.1,0.3,0.3v9.1
												c0,0.2-0.1,0.3-0.3,0.3H7.3c-0.2,0-0.3-0.1-0.3-0.3v-6.9c0-0.1-0.1-0.1-0.1,0l-2.1,6.9c-0.1,0.2-0.1,0.2-0.3,0.2H3.9
												c-0.2,0-0.2-0.1-0.3-0.2l-2.1-6.9c0-0.1-0.1-0.1-0.1,0v6.9c0,0.2-0.1,0.3-0.3,0.3H0.3c-0.2,0-0.3-0.1-0.3-0.3V94
												c0-0.2,0.1-0.3,0.3-0.3h1.5c0.2,0,0.3,0.1,0.3,0.2L4.1,100.7z"/>
                </g>
                <g>
                    <path class="st0" d="M16.8,100.6c0,1.6-1.5,2.9-3.3,2.9c-1.9,0-3.3-1.2-3.3-2.9V94c0-0.2,0.1-0.3,0.3-0.3h0.8
												c0.2,0,0.3,0.1,0.3,0.3v6.6c0,1.1,0.9,1.6,1.9,1.6c1.1,0,1.9-0.7,1.9-1.6V94c0-0.2,0.1-0.3,0.3-0.3h0.8c0.2,0,0.3,0.1,0.3,0.3
												V100.6z"/>
                </g>
                <g>
                    <path class="st0" d="M20.9,98.8c-1.4-0.3-2.4-1.1-2.4-2.6c0-1.6,1.5-2.6,3-2.6c1.7,0,3,1.2,3,2.6v0.2c0,0.2-0.1,0.3-0.3,0.3
												h-0.8c-0.2,0-0.3-0.1-0.3-0.3v-0.2c0-0.9-0.9-1.3-1.6-1.3c-0.9,0-1.6,0.5-1.6,1.3c0,1.2,1.2,1.3,2.2,1.6
												c1.7,0.4,2.7,1.3,2.7,2.8c0,1.8-1.6,2.9-3.3,2.9c-1.9,0-3.3-1.3-3.3-2.9v-0.2c0-0.2,0.1-0.3,0.3-0.3h0.8c0.2,0,0.3,0.1,0.3,0.3
												v0.2c0,0.9,0.8,1.6,1.9,1.6c1.1,0,1.9-0.7,1.9-1.6C23.3,99.3,22.3,99.1,20.9,98.8z"/>
                </g>
                <g>
                    <path class="st0" d="M27.6,101.9c0,0.1,0.1,0.1,0.1,0.1h3.5c0.2,0,0.3,0.1,0.3,0.3v0.8c0,0.2-0.1,0.3-0.3,0.3h-4.7
												c-0.2,0-0.3-0.1-0.3-0.3V94c0-0.2,0.1-0.3,0.3-0.3h4.7c0.2,0,0.3,0.1,0.3,0.3v0.8c0,0.2-0.1,0.3-0.3,0.3h-3.5
												c-0.1,0-0.1,0.1-0.1,0.1v2.5c0,0.1,0.1,0.1,0.1,0.1h3.3c0.2,0,0.3,0.1,0.3,0.3v0.8c0,0.2-0.1,0.3-0.3,0.3h-3.3
												c-0.1,0-0.1,0.1-0.1,0.1V101.9z"/>
                </g>
                <g>
                    <path class="st0" d="M39.5,96.5c0.1,1.1,0.1,3,0,4.1c-0.2,1.5-1.4,2.9-3.3,2.9c-1.7,0-3-1.1-3.3-2.9c-0.1-1.1-0.1-3,0-4.1
												c0.2-1.5,1.4-2.9,3.3-2.9C38,93.6,39.3,94.7,39.5,96.5z M38.1,100.6c0.2-1.1,0.2-3,0-4.1c-0.1-0.8-0.7-1.6-1.9-1.6
												c-0.9,0-1.8,0.5-1.9,1.6c-0.1,1.1-0.1,3,0,4.1c0.1,0.8,0.8,1.6,1.9,1.6C37.2,102.1,38,101.6,38.1,100.6z"/>
                </g>
                <g>
                    <path class="st0" d="M47.9,93.7c1.7,0,2.9,1.3,3.1,2.9c0.1,1.1,0.1,2.7,0,3.8c-0.2,1.6-1.4,2.9-3.1,2.9h-2.8
												c-0.2,0-0.3-0.1-0.3-0.3V94c0-0.2,0.1-0.3,0.3-0.3H47.9z M46.4,95c-0.1,0-0.1,0.1-0.1,0.1v6.7c0,0.1,0.1,0.1,0.1,0.1h1.5
												c0.9,0,1.6-0.8,1.7-1.6c0.1-1.1,0.1-2.7,0-3.8c-0.1-0.8-0.8-1.6-1.7-1.6H46.4z"/>
                </g>
                <g>
                    <path class="st0" d="M54.2,101.9c0,0.1,0.1,0.1,0.1,0.1h3.5c0.2,0,0.3,0.1,0.3,0.3v0.8c0,0.2-0.1,0.3-0.3,0.3h-4.7
												c-0.2,0-0.3-0.1-0.3-0.3V94c0-0.2,0.1-0.3,0.3-0.3h4.7c0.2,0,0.3,0.1,0.3,0.3v0.8c0,0.2-0.1,0.3-0.3,0.3h-3.5
												c-0.1,0-0.1,0.1-0.1,0.1v2.5c0,0.1,0.1,0.1,0.1,0.1h3.3c0.2,0,0.3,0.1,0.3,0.3v0.8c0,0.2-0.1,0.3-0.3,0.3h-3.3
												c-0.1,0-0.1,0.1-0.1,0.1V101.9z"/>
                </g>
                <g>
                    <path class="st0" d="M64.9,101.9c0,0.1,0.1,0.1,0.1,0.1h3.3c0.2,0,0.3,0.1,0.3,0.3v0.8c0,0.2-0.1,0.3-0.3,0.3h-4.5
												c-0.2,0-0.3-0.1-0.3-0.3V94c0-0.2,0.1-0.3,0.3-0.3h0.8c0.2,0,0.3,0.1,0.3,0.3V101.9z"/>
                </g>
                <g>
                    <path class="st0" d="M74.7,101c0-0.1-0.1-0.2-0.3-0.2H72c-0.1,0-0.2,0.1-0.3,0.2l-0.6,2.1c0,0.1-0.1,0.2-0.3,0.2H70
												c-0.2,0-0.3-0.2-0.3-0.3l2.7-9.1c0-0.1,0.1-0.2,0.3-0.2h1c0.1,0,0.2,0.1,0.3,0.2l2.7,9.1c0,0.1-0.1,0.3-0.3,0.3h-0.8
												c-0.1,0-0.2-0.1-0.3-0.2L74.7,101z M74.1,99.6c0.1,0,0.1,0,0.1-0.2l-0.9-3.8c0-0.1,0-0.1-0.1-0.1h0c0,0,0,0-0.1,0.1l-0.9,3.8
												c0,0.1,0,0.2,0.1,0.2H74.1z"/>
                </g>
                <g>
                    <path class="st0" d="M85.6,100c0,0.1,0.1,0.1,0.2,0l1.5-6c0-0.2,0.1-0.2,0.3-0.2h2.1c0.2,0,0.3,0.1,0.3,0.3v9.1
												c0,0.2-0.1,0.3-0.3,0.3h-1.3c-0.2,0-0.3-0.1-0.3-0.3v-5.2c0-0.1-0.1-0.1-0.1,0l-1.5,5.2c0,0.2-0.1,0.2-0.3,0.2h-1.2
												c-0.2,0-0.3-0.1-0.3-0.2l-1.5-5.2c0-0.1-0.1-0.1-0.1,0v5.2c0,0.2-0.1,0.3-0.3,0.3h-1.3c-0.2,0-0.3-0.1-0.3-0.3V94
												c0-0.2,0.1-0.3,0.3-0.3h2.2c0.2,0,0.3,0.1,0.3,0.2L85.6,100z"/>
                </g>
                <g>
                    <path class="st0" d="M94.2,101.3c0,0.1,0.1,0.1,0.1,0.1h3.5c0.2,0,0.3,0.1,0.3,0.3v1.4c0,0.2-0.1,0.3-0.3,0.3h-5.3
												c-0.2,0-0.3-0.1-0.3-0.3V94c0-0.2,0.1-0.3,0.3-0.3h5.3c0.2,0,0.3,0.1,0.3,0.3v1.4c0,0.2-0.1,0.3-0.3,0.3h-3.4
												c-0.1,0-0.1,0.1-0.1,0.1v1.6c0,0.1,0.1,0.1,0.1,0.1h3.3c0.2,0,0.3,0.1,0.3,0.3v1.4c0,0.2-0.1,0.3-0.3,0.3h-3.3
												c-0.1,0-0.1,0.1-0.1,0.1V101.3z"/>
                </g>
                <g>
                    <path class="st0" d="M104.2,100c0,0.1,0.1,0.1,0.2,0l1.5-6c0-0.2,0.1-0.2,0.3-0.2h2.1c0.2,0,0.3,0.1,0.3,0.3v9.1
												c0,0.2-0.1,0.3-0.3,0.3h-1.3c-0.2,0-0.3-0.1-0.3-0.3v-5.2c0-0.1-0.1-0.1-0.1,0l-1.5,5.2c0,0.2-0.1,0.2-0.3,0.2h-1.2
												c-0.2,0-0.3-0.1-0.3-0.2l-1.5-5.2c0-0.1-0.1-0.1-0.1,0v5.2c0,0.2-0.1,0.3-0.3,0.3h-1.3c-0.2,0-0.3-0.1-0.3-0.3V94
												c0-0.2,0.1-0.3,0.3-0.3h2.2c0.2,0,0.3,0.1,0.3,0.2L104.2,100z"/>
                </g>
                <g>
                    <path class="st0" d="M117.4,96.6c0.1,1.2,0.1,2.7,0,3.8c-0.2,1.6-1.5,3-3.5,3c-2,0-3.3-1.4-3.5-3c-0.1-1.2-0.1-2.7,0-3.8
												c0.2-1.6,1.5-3,3.5-3C115.9,93.6,117.2,95,117.4,96.6z M115.3,100.5c0.1-1.2,0.1-2.7,0-3.8c-0.1-0.6-0.5-1.1-1.4-1.1
												c-0.9,0-1.3,0.5-1.4,1.1c-0.1,1.2-0.1,2.7,0,3.8c0.1,0.6,0.5,1.1,1.4,1.1C114.8,101.6,115.3,101.1,115.3,100.5z"/>
                </g>
                <g>
                    <path class="st0" d="M121.4,99.5c-0.1,0-0.1,0.1-0.1,0.1v3.4c0,0.2-0.1,0.3-0.3,0.3h-1.5c-0.2,0-0.3-0.1-0.3-0.3V94
												c0-0.2,0.1-0.3,0.3-0.3h3.2c1.7,0,3.1,1.3,3.1,2.9c0,1.1-0.5,1.8-1.5,2.4c-0.2,0.1-0.2,0.2-0.1,0.5l1.6,3.4
												c0.1,0.2,0,0.4-0.3,0.4h-1.5c-0.2,0-0.3-0.1-0.4-0.3l-1.5-3.4c0-0.1-0.1-0.2-0.3-0.2H121.4z M121.4,95.6c-0.1,0-0.1,0.1-0.1,0.1
												v1.6c0,0.1,0.1,0.1,0.1,0.1h1.3c0.6,0,1-0.4,1-1c0-0.5-0.5-1-1-1H121.4z"/>
                </g>
                <g>
                    <path class="st0" d="M129.4,103.1c0,0.2-0.1,0.3-0.3,0.3h-1.5c-0.2,0-0.3-0.1-0.3-0.3V94c0-0.2,0.1-0.3,0.3-0.3h1.5
												c0.2,0,0.3,0.1,0.3,0.3V103.1z"/>
                </g>
                <g>
                    <path class="st0" d="M136,101.7c0-0.1-0.1-0.2-0.2-0.2h-2.2c-0.1,0-0.2,0.1-0.2,0.2l-0.4,1.4c0,0.1-0.1,0.2-0.3,0.2h-1.5
												c-0.2,0-0.3-0.2-0.3-0.3l2.6-9.1c0-0.1,0.1-0.2,0.3-0.2h2c0.1,0,0.2,0.1,0.3,0.2l2.6,9.1c0,0.1-0.1,0.3-0.3,0.3h-1.5
												c-0.1,0-0.2-0.1-0.3-0.2L136,101.7z M135.4,99.4l-0.7-3.3c0,0,0-0.1-0.1-0.1h0c0,0-0.1,0-0.1,0.1l-0.7,3.3c0,0.1,0,0.2,0.1,0.2
												h1.3C135.4,99.6,135.5,99.5,135.4,99.4z"/>
                </g>
            </g>
            <g>
                <g>
                    <path class="st0" d="M3.1,115.8c0,0.1,0.1,0.1,0.1,0l1.6-4.3c0.1-0.2,0.1-0.2,0.3-0.2h1c0.2,0,0.3,0.2,0.2,0.4l-2.4,5.9v3
												c0,0.2-0.1,0.3-0.3,0.3H2.8c-0.2,0-0.3-0.1-0.3-0.3v-3L0,111.7c-0.1-0.2,0-0.4,0.2-0.4h1c0.1,0,0.2,0.1,0.3,0.2L3.1,115.8z"/>
                </g>
                <g>
                    <path class="st0" d="M12.6,119.5c0,0.1,0.1,0.1,0.1,0.1H16c0.2,0,0.3,0.1,0.3,0.3v0.8c0,0.2-0.1,0.3-0.3,0.3h-4.5
												c-0.2,0-0.3-0.1-0.3-0.3v-9.1c0-0.2,0.1-0.3,0.3-0.3h0.8c0.2,0,0.3,0.1,0.3,0.3V119.5z"/>
                </g>
                <g>
                    <path class="st0" d="M23.8,114c0.1,1.1,0.1,3,0,4.1c-0.2,1.5-1.4,2.9-3.3,2.9c-1.7,0-3-1.1-3.3-2.9c-0.1-1.1-0.1-3,0-4.1
												c0.2-1.5,1.4-2.9,3.3-2.9C22.3,111.2,23.6,112.3,23.8,114z M22.4,118.2c0.2-1.1,0.2-3,0-4.1c-0.1-0.8-0.7-1.6-1.9-1.6
												c-0.9,0-1.8,0.5-1.9,1.6c-0.1,1.1-0.1,3,0,4.1c0.1,0.8,0.8,1.6,1.9,1.6C21.5,119.7,22.3,119.2,22.4,118.2z"/>
                </g>
                <g>
                    <path class="st0" d="M27.9,116.4c-1.4-0.3-2.4-1.1-2.4-2.6c0-1.6,1.5-2.6,3-2.6c1.7,0,3,1.2,3,2.6v0.2c0,0.2-0.1,0.3-0.3,0.3
												h-0.8c-0.2,0-0.3-0.1-0.3-0.3v-0.2c0-0.9-0.9-1.3-1.6-1.3c-0.9,0-1.6,0.5-1.6,1.3c0,1.2,1.2,1.3,2.2,1.6
												c1.7,0.4,2.7,1.3,2.7,2.8c0,1.8-1.6,2.9-3.3,2.9c-1.9,0-3.3-1.3-3.3-2.9v-0.2c0-0.2,0.1-0.3,0.3-0.3h0.8c0.2,0,0.3,0.1,0.3,0.3
												v0.2c0,0.9,0.8,1.6,1.9,1.6c1.1,0,1.9-0.7,1.9-1.6C30.4,116.9,29.4,116.7,27.9,116.4z"/>
                </g>
                <g>
                    <path class="st0" d="M40.3,111.3c1.8,0,3,1.4,3.2,3c0.1,1.2,0.1,2.4,0,3.5c-0.2,1.6-1.5,3-3.2,3h-3.1c-0.2,0-0.3-0.1-0.3-0.3
												v-9.1c0-0.2,0.1-0.3,0.3-0.3H40.3z M39.1,113.2c-0.1,0-0.1,0.1-0.1,0.1v5.5c0,0.1,0.1,0.1,0.1,0.1h1.2c0.7,0,1.1-0.5,1.2-1.1
												c0.1-1.2,0.1-2.4,0-3.5c-0.1-0.6-0.5-1.1-1.2-1.1H39.1z"/>
                </g>
                <g>
                    <path class="st0" d="M47.4,118.9c0,0.1,0.1,0.1,0.1,0.1H51c0.2,0,0.3,0.1,0.3,0.3v1.4c0,0.2-0.1,0.3-0.3,0.3h-5.3
												c-0.2,0-0.3-0.1-0.3-0.3v-9.1c0-0.2,0.1-0.3,0.3-0.3h5.3c0.2,0,0.3,0.1,0.3,0.3v1.4c0,0.2-0.1,0.3-0.3,0.3h-3.4
												c-0.1,0-0.1,0.1-0.1,0.1v1.6c0,0.1,0.1,0.1,0.1,0.1h3.3c0.2,0,0.3,0.1,0.3,0.3v1.4c0,0.2-0.1,0.3-0.3,0.3h-3.3
												c-0.1,0-0.1,0.1-0.1,0.1V118.9z"/>
                </g>
                <g>
                    <path class="st0" d="M55.4,117.1c-0.1,0-0.1,0.1-0.1,0.1v3.4c0,0.2-0.1,0.3-0.3,0.3h-1.5c-0.2,0-0.3-0.1-0.3-0.3v-9.1
												c0-0.2,0.1-0.3,0.3-0.3h3.2c1.7,0,3.1,1.3,3.1,2.9c0,1.1-0.5,1.8-1.5,2.4c-0.2,0.1-0.2,0.2-0.1,0.5l1.6,3.4
												c0.1,0.2,0,0.4-0.3,0.4h-1.5c-0.2,0-0.3-0.1-0.4-0.3l-1.5-3.4c0-0.1-0.1-0.2-0.3-0.2H55.4z M55.4,113.2c-0.1,0-0.1,0.1-0.1,0.1
												v1.6c0,0.1,0.1,0.1,0.1,0.1h1.3c0.6,0,1-0.4,1-1c0-0.5-0.5-1-1-1H55.4z"/>
                </g>
                <g>
                    <path class="st0" d="M63.5,118.9c0,0.1,0.1,0.1,0.1,0.1h3.5c0.2,0,0.3,0.1,0.3,0.3v1.4c0,0.2-0.1,0.3-0.3,0.3h-5.3
												c-0.2,0-0.3-0.1-0.3-0.3v-9.1c0-0.2,0.1-0.3,0.3-0.3H67c0.2,0,0.3,0.1,0.3,0.3v1.4c0,0.2-0.1,0.3-0.3,0.3h-3.4
												c-0.1,0-0.1,0.1-0.1,0.1v1.6c0,0.1,0.1,0.1,0.1,0.1h3.3c0.2,0,0.3,0.1,0.3,0.3v1.4c0,0.2-0.1,0.3-0.3,0.3h-3.3
												c-0.1,0-0.1,0.1-0.1,0.1V118.9z"/>
                </g>
                <g>
                    <path class="st0" d="M75.7,117.9c0,1.8-1.5,3.1-3.5,3.1c-2,0-3.3-1.4-3.5-3c-0.1-1.2-0.1-2.7,0-3.8c0.2-1.6,1.5-3,3.5-3
												c2,0,3.5,1.3,3.5,3.1v0c0,0.1-0.1,0.3-0.3,0.3H74c-0.2,0-0.3-0.1-0.3-0.3v0c0-0.6-0.5-1.2-1.4-1.2c-0.9,0-1.3,0.5-1.4,1.1
												c-0.1,1.2-0.1,2.7,0,3.8c0.1,0.6,0.5,1.1,1.4,1.1c0.9,0,1.4-0.6,1.4-1.2v0c0-0.2,0.1-0.3,0.3-0.3h1.5
												C75.6,117.6,75.7,117.8,75.7,117.9L75.7,117.9z"/>
                </g>
                <g>
                    <path class="st0" d="M82.2,111.3h1.5c0.2,0,0.3,0.1,0.3,0.3v9.1c0,0.2-0.1,0.3-0.3,0.3h-1.5c-0.2,0-0.3-0.1-0.3-0.3v-3.4
												c0-0.1-0.1-0.1-0.1-0.1h-2.2c-0.1,0-0.1,0.1-0.1,0.1v3.4c0,0.2-0.2,0.3-0.4,0.3h-1.4c-0.2,0-0.3-0.1-0.3-0.3v-9.1
												c0-0.2,0.1-0.3,0.3-0.3h1.5c0.2,0,0.3,0.1,0.3,0.3v3.4c0,0.1,0.1,0.1,0.1,0.1h2.2c0.1,0,0.1-0.1,0.1-0.1v-3.4
												C81.9,111.4,82,111.3,82.2,111.3z"/>
                </g>
                <g>
                    <path class="st0" d="M92.6,114.2c0.1,1.2,0.1,2.7,0,3.8c-0.2,1.6-1.5,3-3.5,3c-2,0-3.3-1.4-3.5-3c-0.1-1.2-0.1-2.7,0-3.8
												c0.2-1.6,1.5-3,3.5-3C91.2,111.1,92.4,112.5,92.6,114.2z M90.6,118c0.1-1.2,0.1-2.7,0-3.8c-0.1-0.6-0.5-1.1-1.4-1.1
												c-0.9,0-1.3,0.5-1.4,1.1c-0.1,1.2-0.1,2.7,0,3.8c0.1,0.6,0.5,1.1,1.4,1.1C90.1,119.1,90.5,118.6,90.6,118z"/>
                </g>
                <g>
                    <path class="st0" d="M97.5,117c-1.8-0.4-3.3-1.1-3.3-2.9c0-1.6,1.4-2.9,3.3-2.9c2,0,3.3,1.3,3.3,2.9v0.2c0,0.2-0.1,0.3-0.3,0.3
												h-1.5c-0.2,0-0.3-0.1-0.3-0.3V114c0-0.5-0.5-1-1.3-1c-0.8,0-1.3,0.4-1.3,1c0,0.5,0.5,0.9,1.3,1c2,0.4,3.5,1.2,3.5,3.1
												c0,1.8-1.5,3-3.6,3c-2,0-3.5-1.3-3.5-3v-0.4c0-0.2,0.1-0.3,0.3-0.3h1.5c0.2,0,0.3,0.1,0.3,0.3v0.4c0,0.6,0.5,1.1,1.4,1.1
												c0.9,0,1.4-0.5,1.4-1.1C99,117.5,98.6,117.2,97.5,117z"/>
                </g>
            </g>
            <g>
                <g>
                    <path class="st0" d="M4.8,128.9h1.5c0.2,0,0.3,0.1,0.3,0.3v9.1c0,0.2-0.1,0.3-0.3,0.3H4.8c-0.2,0-0.3-0.1-0.3-0.3v-3.4
												c0-0.1-0.1-0.1-0.1-0.1H2.2c-0.1,0-0.1,0.1-0.1,0.1v3.4c0,0.2-0.2,0.3-0.4,0.3H0.3c-0.2,0-0.3-0.1-0.3-0.3v-9.1
												c0-0.2,0.1-0.3,0.3-0.3h1.5c0.2,0,0.3,0.1,0.3,0.3v3.4c0,0.1,0.1,0.1,0.1,0.1h2.2c0.1,0,0.1-0.1,0.1-0.1v-3.4
												C4.5,129,4.7,128.9,4.8,128.9z"/>
                </g>
                <g>
                    <path class="st0" d="M15.4,135.6c0,1.7-1.5,3-3.5,3c-2,0-3.4-1.4-3.4-3v-6.5c0-0.2,0.1-0.3,0.3-0.3h1.5c0.2,0,0.3,0.1,0.3,0.3
												v6.5c0,0.6,0.5,1.1,1.4,1.1c0.9,0,1.4-0.5,1.4-1.1v-6.5c0-0.2,0.1-0.3,0.3-0.3h1.5c0.2,0,0.3,0.1,0.3,0.3V135.6z"/>
                </g>
                <g>
                    <path class="st0" d="M21.5,135.1c0,0.1,0.1,0.1,0.2,0l1.5-6c0-0.2,0.1-0.2,0.3-0.2h2.1c0.2,0,0.3,0.1,0.3,0.3v9.1
												c0,0.2-0.1,0.3-0.3,0.3h-1.3c-0.2,0-0.3-0.1-0.3-0.3v-5.2c0-0.1-0.1-0.1-0.1,0l-1.5,5.2c0,0.2-0.1,0.2-0.3,0.2H21
												c-0.2,0-0.3-0.1-0.3-0.2l-1.5-5.2c0-0.1-0.1-0.1-0.1,0v5.2c0,0.2-0.1,0.3-0.3,0.3h-1.3c-0.2,0-0.3-0.1-0.3-0.3v-9.1
												c0-0.2,0.1-0.3,0.3-0.3h2.2c0.2,0,0.3,0.1,0.3,0.2L21.5,135.1z"/>
                </g>
                <g>
                    <path class="st0" d="M32.6,136.9c0-0.1-0.1-0.2-0.2-0.2h-2.2c-0.1,0-0.2,0.1-0.2,0.2l-0.4,1.4c0,0.1-0.1,0.2-0.3,0.2h-1.5
												c-0.2,0-0.3-0.2-0.3-0.3l2.6-9.1c0-0.1,0.1-0.2,0.3-0.2h2c0.1,0,0.2,0.1,0.3,0.2l2.6,9.1c0,0.1-0.1,0.3-0.3,0.3h-1.5
												c-0.1,0-0.2-0.1-0.3-0.2L32.6,136.9z M32,134.6l-0.7-3.3c0,0,0-0.1-0.1-0.1h0c0,0-0.1,0-0.1,0.1l-0.7,3.3c0,0.1,0,0.2,0.1,0.2
												h1.3C32,134.8,32.1,134.7,32,134.6z"/>
                </g>
                <g>
                    <path class="st0" d="M41.2,138.5c-0.2,0-0.3-0.1-0.4-0.2l-2-4.8c0-0.1-0.1-0.1-0.1,0v4.8c0,0.2-0.1,0.3-0.3,0.3h-1.5
												c-0.2,0-0.3-0.1-0.3-0.3v-9.1c0-0.2,0.1-0.3,0.3-0.3h1.7c0.2,0,0.3,0.1,0.4,0.2l2,5.2c0,0.1,0.1,0.1,0.1,0v-5.2
												c0-0.2,0.1-0.3,0.3-0.3h1.5c0.2,0,0.3,0.1,0.3,0.3v9.1c0,0.2-0.1,0.3-0.3,0.3H41.2z"/>
                </g>
                <g>
                    <path class="st0" d="M51.9,131.8c0.1,1.2,0.1,2.7,0,3.8c-0.2,1.6-1.5,3-3.5,3c-2,0-3.3-1.4-3.5-3c-0.1-1.2-0.1-2.7,0-3.8
												c0.2-1.6,1.5-3,3.5-3C50.4,128.7,51.7,130.1,51.9,131.8z M49.8,135.6c0.1-1.2,0.1-2.7,0-3.8c-0.1-0.6-0.5-1.1-1.4-1.1
												c-0.9,0-1.3,0.5-1.4,1.1c-0.1,1.2-0.1,2.7,0,3.8c0.1,0.6,0.5,1.1,1.4,1.1C49.3,136.7,49.7,136.2,49.8,135.6z"/>
                </g>
                <g>
                    <path class="st0" d="M56.6,134.6c-1.8-0.4-3.3-1.1-3.3-2.9c0-1.6,1.4-2.9,3.3-2.9c2,0,3.3,1.3,3.3,2.9v0.2
												c0,0.2-0.1,0.3-0.3,0.3h-1.5c-0.2,0-0.3-0.1-0.3-0.3v-0.2c0-0.5-0.5-1-1.3-1c-0.8,0-1.3,0.4-1.3,1c0,0.5,0.5,0.9,1.3,1
												c2,0.4,3.5,1.2,3.5,3.1c0,1.8-1.5,3-3.6,3c-2,0-3.5-1.3-3.5-3v-0.4c0-0.2,0.1-0.3,0.3-0.3H55c0.2,0,0.3,0.1,0.3,0.3v0.4
												c0,0.6,0.5,1.1,1.4,1.1c0.9,0,1.4-0.5,1.4-1.1C58.2,135.1,57.7,134.8,56.6,134.6z"/>
                </g>
            </g>
        </g>
    </g>
</svg>
